<svg width="40" height="40" viewBox="0 0 40 40" fill="none" xmlns="http://www.w3.org/2000/svg">
<path d="M20.2268 0.544189C9.43313 0.544189 0.725647 9.25167 0.725647 20.0453C0.725647 26.0317 3.44674 31.3832 7.70977 35.0113L15.7823 21.0431L17.8685 17.5056L20.8617 28.5714L24.3991 27.5737L24.6712 27.0294L32.2903 13.9682L32.7438 15.1474C34.2857 18.9569 34.0136 23.3106 31.9275 26.848C30.1134 29.9319 27.2109 32.1088 23.8549 33.0159C22.2222 33.4694 20.4989 33.5601 18.7755 33.3787C17.0522 33.1973 15.4195 32.653 13.9683 31.8367C13.9683 31.8367 7.80048 34.8299 7.70977 34.9206C11.0658 37.7324 15.5102 39.4558 20.2268 39.5465C31.0204 39.5465 39.7279 30.839 39.7279 20.0453C39.7279 9.25167 31.0204 0.634892 20.2268 0.544189ZM22.9479 22.9478L19.9547 11.8821L16.3266 12.8798L16.0544 13.424L12.6077 19.3197L8.4354 26.4852L7.98188 25.3061C6.43993 21.4966 6.71204 17.1428 8.79821 13.6054C10.6123 10.5215 13.5148 8.34464 16.8708 7.43761C18.5034 6.9841 20.2268 6.8934 21.9501 7.0748C23.6735 7.25621 25.3061 7.80043 26.7574 8.61675C27.0295 8.43535 33.0159 5.44215 33.0159 5.44215L22.9479 22.9478Z" fill="#0A0A56"/>
<path d="M26.7573 8.5261C25.3061 7.70977 23.6734 7.16556 21.9501 6.98415C20.2267 6.80274 18.5034 6.89345 16.8707 7.34696C13.424 8.25399 10.5215 10.5216 8.79816 13.5148C6.71199 17.0522 6.43988 21.4059 7.98183 25.2154L8.43535 26.3946L12.6077 19.229L16.0544 13.3334L16.3265 12.7891L19.8639 11.7914V11.7007V11.7914L22.8571 22.8572L33.0159 5.4422C33.0159 5.4422 27.0295 8.4354 26.7573 8.5261Z" fill="url(#paint0_linear_60_4)"/>
<path d="M18.7755 33.4694C20.4988 33.6508 22.2222 33.5601 23.8548 33.1066C27.3016 32.1996 30.2041 29.932 31.9274 26.9388C34.0136 23.4014 34.2857 19.0476 32.7437 15.2381L32.2902 14.059L24.6712 27.1202L24.3991 27.6644L20.8617 28.6621L17.8685 17.5964L15.7823 21.1338L7.61902 35.0113C7.70972 34.9206 13.8775 31.9274 13.8775 31.9274C15.4195 32.7438 17.0521 33.288 18.7755 33.4694Z" fill="url(#paint1_linear_60_4)"/>
<defs>
<linearGradient id="paint0_linear_60_4" x1="18.3662" y1="13.0671" x2="39.8435" y2="38.9276" gradientUnits="userSpaceOnUse">
<stop stop-color="#00FFFF"/>
<stop offset="0.0923" stop-color="#00E2FF"/>
<stop offset="0.2928" stop-color="#0099FF"/>
<stop offset="0.5839" stop-color="#0025FF"/>
<stop offset="0.674" stop-color="#0000FF"/>
</linearGradient>
<linearGradient id="paint1_linear_60_4" x1="13.6749" y1="16.9634" x2="35.1522" y2="42.8238" gradientUnits="userSpaceOnUse">
<stop stop-color="#00FFFF"/>
<stop offset="0.0923" stop-color="#00E2FF"/>
<stop offset="0.2928" stop-color="#0099FF"/>
<stop offset="0.5839" stop-color="#0025FF"/>
<stop offset="0.674" stop-color="#0000FF"/>
</linearGradient>
</defs>
</svg>
