<svg width="106" height="30" viewBox="0 0 106 30" fill="none" xmlns="http://www.w3.org/2000/svg">
<g clip-path="url(#clip0_35_668)">
<path d="M14.9661 8.50342L15.0341 8.57145L14.9661 8.50342Z" fill="white"/>
<path d="M48.6394 15.4422L47.4829 22.1769C47.4149 22.3809 47.2108 22.585 47.0067 22.585H44.5577C44.3537 22.585 44.2176 22.449 44.2176 22.2449V22.1769L45.3741 15.4422C45.4421 15.102 45.4421 14.7619 45.4421 14.5578C45.4421 13.8095 44.9659 13.5374 44.3537 13.5374C43.6054 13.5374 42.585 13.9456 42.1768 14.2177L40.7482 22.1769C40.6802 22.3809 40.4761 22.585 40.272 22.585H37.823C37.619 22.585 37.4829 22.449 37.4829 22.2449V22.1769L39.3877 11.3605C39.4557 11.1565 39.6598 10.9524 39.8639 10.9524H42.0407C42.2448 10.9524 42.3809 11.0884 42.3809 11.2925V11.3605L42.3128 11.8367C43.1972 11.1565 44.4217 10.7483 45.5101 10.7483C47.2788 10.7483 48.7754 11.7007 48.7754 14.0816C48.7754 14.6258 48.7074 15.034 48.6394 15.4422Z" fill="white"/>
<path d="M56.3945 10.2721L56.2584 11.0204H57.9591C58.2992 11.0204 58.3673 11.2245 58.2992 11.4286L58.0271 13.0612C57.9591 13.4014 57.8911 13.4694 57.5509 13.4694H55.8502L54.2176 22.6531C53.6734 25.7823 52.1768 26.1225 49.9999 26.1225C49.5237 26.1225 49.0475 26.0544 48.5713 25.9184C48.4353 25.8504 48.2312 25.7823 48.2312 25.6463C48.2312 25.6463 48.2312 25.6463 48.2312 25.5782L48.5033 24.0136C48.5713 23.7415 48.7074 23.6735 48.9115 23.6735H49.6598C50.5441 23.6735 50.7482 23.6055 50.8843 22.6531L52.5169 13.4694L50.9523 13.1973C50.6802 13.1293 50.6122 12.9252 50.6122 12.6531L50.8162 11.4286C50.8843 11.0884 51.0203 11.0204 51.2924 11.0204H52.857L52.9931 10.2721C53.4693 7.2109 54.9659 6.80273 57.2108 6.80273C57.687 6.80273 58.2312 6.87076 58.6394 7.00682C58.8434 7.07484 58.9795 7.14287 58.9795 7.34695L58.8434 8.84355C58.7754 9.11566 58.7074 9.25171 58.3673 9.25171H57.2788C56.6666 9.25171 56.5305 9.38777 56.3945 10.2721Z" fill="white"/>
<path d="M66.4626 11.4286L66.1904 13.0613C66.1224 13.2654 65.9183 13.4694 65.7143 13.4694H64.0816L62.9932 19.3878C62.9251 19.6599 62.9251 19.796 62.9251 19.932C62.9251 20.2041 63.0612 20.3402 63.4694 20.3402H64.4898C64.6938 20.3402 64.8299 20.4082 64.8299 20.6123V20.6803L64.5578 22.2449C64.4898 22.449 64.3537 22.5851 64.0816 22.6531C63.4694 22.7211 62.9932 22.7892 62.449 22.7892C60.6122 22.7892 59.5918 22.1089 59.5918 20.3402C59.5918 20.0681 59.6598 19.6599 59.6598 19.3198L60.6802 13.4694L59.1836 13.1973C58.9796 13.1293 58.8435 13.0613 58.8435 12.8572V12.7892L59.0476 11.4286C59.1156 11.2245 59.3197 11.0205 59.5238 11.0205H61.1564L61.4285 9.3878C61.4966 9.18372 61.7006 9.04766 61.9047 8.97964L64.4898 8.57147H64.5578C64.7619 8.57147 64.8299 8.6395 64.8299 8.84358V8.91161L64.4217 11.0885H66.0544C66.3265 11.0205 66.4626 11.1565 66.4626 11.4286C66.4626 11.3606 66.4626 11.3606 66.4626 11.4286Z" fill="white"/>
<path d="M71.7686 15.7143L71.4965 17.2109C71.4285 17.415 71.2244 17.551 71.0203 17.551H67.0748C66.8707 17.551 66.7346 17.415 66.7346 17.2789V17.2109L67.0067 15.7143C67.0748 15.5102 67.2788 15.3062 67.4829 15.3062H71.4285C71.6326 15.3062 71.7686 15.4422 71.7686 15.7143C71.7686 15.6463 71.7686 15.7143 71.7686 15.7143Z" fill="white"/>
<path d="M84.4217 7.07483C84.6938 7.07483 84.8298 7.14286 84.7618 7.48299L82.3128 21.7007C82.2448 22.0408 82.1768 22.1769 81.5645 22.3129C80.34 22.585 78.7074 22.8571 77.1427 22.8571C74.4217 22.8571 72.925 21.1565 72.925 18.7075C72.925 18.3673 72.9251 18.0272 72.9931 17.6871L73.2652 16.1224C73.8774 12.381 75.7142 10.9524 79.2516 10.9524C79.6597 10.9524 80.34 11.0204 80.8842 11.0884L81.4965 7.55102C81.5645 7.34694 81.7006 7.14286 81.9727 7.14286L84.4217 7.07483ZM78.7754 13.5374C77.2788 13.5374 76.8026 14.3537 76.5305 15.9864L76.2584 17.551C76.1904 17.9592 76.1904 18.2993 76.1904 18.6395C76.1904 19.5918 76.5305 20.068 77.687 20.068C78.3672 20.068 78.9795 20 79.3876 19.932L80.4761 13.6054C79.9999 13.6054 79.3196 13.5374 78.7754 13.5374Z" fill="white"/>
<path d="M95.5782 16.1225L95.306 17.551C94.6258 21.0204 92.9251 22.8572 89.3197 22.8572C86.5305 22.8572 85.0339 21.0885 85.0339 18.7075C85.0339 18.3674 85.0339 17.9592 85.102 17.551L85.3741 16.1225C86.0543 12.449 88.0271 10.8163 91.3605 10.8163C94.0816 10.8163 95.6462 12.449 95.6462 14.898C95.7142 15.3061 95.5782 15.8504 95.5782 16.1225ZM90.8843 13.6735C89.7278 13.6735 88.9795 14.3538 88.6394 16.1225L88.3673 17.551C88.2992 17.8912 88.2992 18.2313 88.2992 18.5034C88.2992 19.5919 88.7754 20 89.7958 20C91.0884 20 91.7006 19.1157 92.0407 17.483L92.3128 16.0544C92.3809 15.7143 92.3809 15.3742 92.3809 15.1021C92.3809 14.1497 91.9047 13.6735 90.8843 13.6735Z" fill="white"/>
<path d="M105.17 11.4286L104.898 13.0613C104.83 13.2654 104.626 13.4694 104.422 13.4694H102.789L101.701 19.3878C101.633 19.6599 101.633 19.796 101.633 19.932C101.633 20.2041 101.769 20.3402 102.177 20.3402H103.197C103.401 20.3402 103.537 20.4082 103.537 20.6123V20.6803L103.265 22.2449C103.197 22.449 103.061 22.5851 102.789 22.6531C102.177 22.7211 101.701 22.7892 101.156 22.7892C99.3196 22.7892 98.2992 22.1089 98.2992 20.3402C98.2992 20.0681 98.3673 19.6599 98.3673 19.3198L99.3877 13.4694L97.823 13.1973C97.619 13.1293 97.4829 13.0613 97.4829 12.8572V12.7892L97.687 11.4286C97.755 11.2245 97.9591 11.0205 98.1632 11.0205H99.7958L100.068 9.3878C100.136 9.18372 100.34 9.04766 100.544 8.97964L103.129 8.57147H103.197C103.401 8.57147 103.469 8.6395 103.469 8.84358V8.91161L103.061 11.0885H104.694C105.034 11.0205 105.17 11.1565 105.17 11.4286C105.17 11.3606 105.17 11.3606 105.17 11.4286Z" fill="white"/>
<path d="M15.17 0.408142C7.0748 0.408142 0.544189 6.93875 0.544189 15.034C0.544189 19.5238 2.58501 23.5374 5.78228 26.2585L11.8367 15.7823L13.4013 13.1292L15.6462 21.4285L18.2993 20.6803L18.5034 20.2721L24.2177 10.4762L24.5578 11.3605C25.7143 14.2177 25.5102 17.483 23.9456 20.136C22.585 22.449 20.4081 24.0816 17.8911 24.7619C16.6666 25.102 15.3741 25.17 14.0816 25.034C12.7891 24.8979 11.5646 24.4898 10.4762 23.8775C10.4762 23.8775 5.85031 26.1224 5.78228 26.1905C8.29929 28.2993 11.6326 29.5918 15.17 29.6598C23.2653 29.6598 29.7959 23.1292 29.7959 15.034C29.7959 6.93875 23.2653 0.476169 15.17 0.408142ZM17.2109 17.2109L14.966 8.91154L12.2449 9.65984L12.0408 10.068L9.45575 14.4898L6.3265 19.8639L5.98637 18.9796C4.8299 16.1224 5.03399 12.8571 6.59861 10.2041C7.95916 7.89113 10.136 6.25848 12.653 5.57821C13.8775 5.23807 15.17 5.17005 16.4626 5.3061C17.7551 5.44216 18.9796 5.85032 20.068 6.46256C20.2721 6.32651 24.7619 4.08161 24.7619 4.08161L17.2109 17.2109Z" fill="#0A0A56"/>
<path d="M20.0681 6.39453C18.9797 5.78228 17.7552 5.37412 16.4627 5.23807C15.1702 5.10201 13.8777 5.17004 12.6532 5.51018C10.0681 6.19045 7.89127 7.89113 6.59876 10.136C5.03413 12.7891 4.83005 16.0544 5.98651 18.9115L6.32665 19.7959L9.4559 14.4217L12.0409 9.99997L12.245 9.59181L14.8981 8.84351V8.77548V8.84351L17.143 17.1428L24.762 4.0816C24.762 4.0816 20.2722 6.3265 20.0681 6.39453Z" fill="url(#paint0_linear_35_668)"/>
<path d="M14.0817 25.102C15.3742 25.2381 16.6667 25.17 17.8912 24.8299C20.4763 24.1496 22.6531 22.449 23.9457 20.2041C25.5103 17.551 25.7144 14.2857 24.5579 11.4285L24.2178 10.5442L18.5035 20.3401L18.2994 20.7483L15.6463 21.4966L13.4014 13.1973L11.8368 15.8503L5.71436 26.2585C5.78238 26.1904 10.4082 23.9456 10.4082 23.9456C11.5647 24.5578 12.7892 24.966 14.0817 25.102Z" fill="url(#paint1_linear_35_668)"/>
</g>
<defs>
<linearGradient id="paint0_linear_35_668" x1="13.7748" y1="9.80031" x2="29.8828" y2="29.1956" gradientUnits="userSpaceOnUse">
<stop stop-color="#00FFFF"/>
<stop offset="0.0923" stop-color="#00E2FF"/>
<stop offset="0.2928" stop-color="#0099FF"/>
<stop offset="0.5839" stop-color="#0025FF"/>
<stop offset="0.674" stop-color="#0000FF"/>
</linearGradient>
<linearGradient id="paint1_linear_35_668" x1="10.2563" y1="12.7225" x2="26.3642" y2="32.1178" gradientUnits="userSpaceOnUse">
<stop stop-color="#00FFFF"/>
<stop offset="0.0923" stop-color="#00E2FF"/>
<stop offset="0.2928" stop-color="#0099FF"/>
<stop offset="0.5839" stop-color="#0025FF"/>
<stop offset="0.674" stop-color="#0000FF"/>
</linearGradient>
<clipPath id="clip0_35_668">
<rect width="105.442" height="30" fill="white"/>
</clipPath>
</defs>
</svg>
