<svg width="38" height="40" viewBox="0 0 38 40" fill="none" xmlns="http://www.w3.org/2000/svg">
<path d="M24.2468 32.672C20.9828 32.672 17.7188 32.672 14.5188 32.672C14.1988 32.608 13.8788 32.544 13.4948 32.544C9.78281 32.352 7.03081 29.664 6.90281 25.952C6.77481 21.984 6.77481 18.016 6.90281 13.984C6.96681 10.72 9.14281 8.288 12.2788 7.584C12.9828 7.52 13.6868 7.456 14.3268 7.328C17.7188 7.328 21.1108 7.328 24.4388 7.328C24.7588 7.392 25.0148 7.456 25.3348 7.456C28.5348 7.648 30.9668 9.632 31.7348 12.768C31.9268 13.536 31.9908 14.304 32.0548 15.072C32.0548 18.336 32.0548 21.6 32.0548 24.8C31.9908 25.184 31.9268 25.568 31.9268 25.888C31.7348 29.088 29.7508 31.52 26.6148 32.288C25.8468 32.48 25.0148 32.544 24.2468 32.672ZM29.6868 20C29.6868 18.208 29.7508 16.416 29.6868 14.624C29.5588 11.616 27.8948 9.824 24.8228 9.76C21.2388 9.696 17.5908 9.696 14.0068 9.76C10.9348 9.824 9.20681 11.552 9.14281 14.624C9.07881 18.208 9.07881 21.792 9.14281 25.376C9.20681 28.512 10.9348 30.24 14.0708 30.304C17.6548 30.368 21.2388 30.368 24.8228 30.304C27.8308 30.24 29.5588 28.448 29.6228 25.504C29.7508 23.648 29.6868 21.792 29.6868 20Z" fill="#00FFFF"/>
<path d="M12.9188 19.936C12.9188 16.288 15.8628 13.472 19.4468 13.472C23.0948 13.472 25.9108 16.416 25.9108 20C25.8468 23.584 23.0308 26.464 19.3828 26.464C15.7988 26.464 12.9188 23.584 12.9188 19.936ZM19.4468 15.776C17.0788 15.776 15.2228 17.632 15.2228 19.936C15.2228 22.24 17.0788 24.16 19.3828 24.16C21.7508 24.16 23.6068 22.368 23.6708 20C23.6068 17.696 21.8148 15.84 19.4468 15.776Z" fill="#00FFFF"/>
<path d="M26.1668 11.744C27.0628 11.744 27.7028 12.384 27.7028 13.28C27.7028 14.112 26.9988 14.816 26.1668 14.816C25.3348 14.816 24.6308 14.112 24.6308 13.28C24.6308 12.384 25.3348 11.744 26.1668 11.744Z" fill="#00FFFF"/>
</svg>
