<svg width="38" height="40" viewBox="0 0 38 40" fill="none" xmlns="http://www.w3.org/2000/svg">
<rect x="0.340424" width="37.4468" height="40" rx="5" fill="#00FFFF"/>
<path d="M32.0718 11.1009L28.1105 29.5665C27.8113 30.8697 27.0322 31.1943 25.9248 30.5797L19.8902 26.1831L16.9821 28.9503C16.8394 29.1337 16.6557 29.2819 16.4453 29.3834C16.235 29.4849 16.0037 29.5368 15.7697 29.5352L16.203 23.4588L27.3847 13.4702C27.8713 13.0418 27.2789 12.8037 26.6289 13.2329L12.8016 21.84L6.84868 19.998C5.55377 19.5985 5.53044 18.7178 7.11782 18.1033L30.3978 9.23585C31.4761 8.83631 32.4193 9.4731 32.0643 11.1009H32.0718Z" fill="#162668"/>
</svg>
