<svg width="39" height="40" viewBox="0 0 39 40" fill="none" xmlns="http://www.w3.org/2000/svg">
<path d="M33.5256 11.552C32.5016 12 31.4136 12.32 30.3256 12.448C31.4776 11.744 32.3736 10.656 32.7576 9.37599C31.6696 10.016 30.4536 10.464 29.1736 10.72C28.1496 9.63199 26.6776 8.92799 25.0776 8.92799C22.0056 8.92799 19.4456 11.424 19.4456 14.56C19.4456 15.008 19.5096 15.456 19.5736 15.84C15.0296 15.52 10.9336 13.344 8.1176 9.95199C7.6056 10.784 7.3496 11.744 7.3496 12.768C7.3496 14.688 8.3096 16.416 9.8456 17.44C8.9496 17.44 8.0536 17.184 7.2856 16.736V16.8C7.2856 19.488 9.2056 21.792 11.7656 22.304C11.3176 22.432 10.8056 22.496 10.2936 22.496C9.9096 22.496 9.5896 22.432 9.2696 22.368C9.9736 24.608 12.0216 26.208 14.5176 26.272C12.5976 27.744 10.1656 28.64 7.5416 28.64C7.0936 28.64 6.6456 28.64 6.1976 28.576C8.6936 30.176 11.6376 31.072 14.7736 31.072C25.1416 31.072 30.7736 22.56 30.7736 15.136C30.7736 14.88 30.7736 14.624 30.7736 14.432C31.8616 13.664 32.8216 12.64 33.5256 11.552Z" fill="#00FFFF"/>
</svg>
